<?xml version="1.0" standalone="no"?>
<svg xmlns="http://www.w3.org/2000/svg" viewBox="0 0 78 29" width="78" height="29"><g fill="#ead017" color="#ead017" transform="translate(0, 0) scale(0.5576924)"><svg width="52.0" height="52.0" x="0.0" y="0.0" viewBox="0 0 52 52"><path fill="currentColor" fill-rule="evenodd" d="M21.009 26.075l-6.747 6.747a3.95 3.95 0 0 1-2.808 1.164 3.953 3.953 0 0 1-2.81-1.164L1.9 26.075a.105.105 0 0 1 0-.15l6.746-6.746a3.95 3.95 0 0 1 2.81-1.163c1.059 0 2.057.413 2.807 1.163l6.747 6.746c.008.01.03.03.03.075a.1.1 0 0 1-.03.075m4.99 3.019c.45 0 .899.152 1.264.456l.133.122 6.746 6.746a5.84 5.84 0 0 1 .176 8.075l-.176.183-6.746 6.746a1.968 1.968 0 0 1-2.659.122l-.132-.122-6.746-6.746a5.839 5.839 0 0 1-.176-8.075l.176-.183 6.746-6.746c.384-.386.89-.578 1.395-.578zm0 1.867a.1.1 0 0 0-.06.02l-.014.011-6.745 6.746a3.939 3.939 0 0 0-1.164 2.809 3.94 3.94 0 0 0 1.008 2.645l.156.164 6.745 6.746c.01.009.03.032.075.032.029 0 .05-.01.062-.02l.013-.012 6.746-6.746a3.947 3.947 0 0 0 1.165-2.81c0-.985-.357-1.915-1.008-2.644l-.156-.164-6.747-6.746a.102.102 0 0 0-.075-.03zM11.455 16.148c1.4 0 2.802.502 3.911 1.504l.218.207 6.746 6.746c.73.73.77 1.89.115 2.665l-.115.126-6.746 6.747a5.826 5.826 0 0 1-4.129 1.71 5.825 5.825 0 0 1-3.912-1.503l-.218-.207-6.746-6.747c-.73-.73-.769-1.89-.115-2.666l.115-.125 6.746-6.746a5.823 5.823 0 0 1 4.13-1.71zm29.093 0c1.401 0 2.802.502 3.911 1.504l.218.207 6.746 6.746c.73.73.768 1.89.115 2.665l-.115.126-6.746 6.747a5.826 5.826 0 0 1-4.129 1.71 5.825 5.825 0 0 1-3.911-1.503l-.218-.207-6.746-6.747a1.974 1.974 0 0 1-.115-2.666l.115-.125 6.746-6.746a5.823 5.823 0 0 1 4.13-1.71zm0 1.868c-.985 0-1.916.356-2.644 1.008l-.164.155-6.747 6.746a.108.108 0 0 0-.023.116l.023.034 6.747 6.747a3.95 3.95 0 0 0 2.808 1.164c.985 0 1.916-.358 2.644-1.008l.164-.156 6.747-6.747c.008-.008.03-.03.03-.075a.1.1 0 0 0-.018-.061l-.012-.014-6.747-6.746a3.944 3.944 0 0 0-2.808-1.163zM26 0c.505 0 1.01.192 1.396.578l6.746 6.746a5.84 5.84 0 0 1 0 8.26l-6.746 6.744c-.385.386-.89.578-1.396.578-.505 0-1.01-.192-1.395-.578l-6.747-6.745a5.842 5.842 0 0 1 0-8.26L24.605.579C24.99.192 25.495 0 26 0zm0 1.867c-.044 0-.066.024-.074.031L19.18 8.644a3.978 3.978 0 0 0 0 5.62l6.746 6.744c.007.01.03.031.074.031a.097.097 0 0 0 .076-.03l6.745-6.746a3.976 3.976 0 0 0 0-5.619l-6.745-6.746c-.01-.007-.032-.03-.076-.03z"></path></svg></g><line x1="41" y1="1" x2="41" y2="28" stroke="#ffffff" stroke-linecap="round"></line><path fill="#ffffff" fill-rule="nonzero" d="M4.44 19.44L0 19.44L0 0L4.22 0Q6.38 0 7.64 0.66Q8.90 1.32 9.44 2.64Q9.98 3.96 9.98 5.93L9.98 5.93L9.98 13.08Q9.98 15.14 9.44 16.56Q8.90 17.98 7.69 18.71Q6.48 19.44 4.44 19.44L4.44 19.44ZM2.71 2.02L2.71 17.50L4.25 17.50Q5.74 17.50 6.36 16.92Q6.98 16.34 7.12 15.24Q7.25 14.14 7.25 12.58L7.25 12.58L7.25 6.26Q7.25 4.75 7.06 3.82Q6.86 2.88 6.22 2.45Q5.57 2.02 4.18 2.02L4.18 2.02L2.71 2.02ZM14.88 19.44L12.31 19.44L12.31 16.58L14.88 16.58L14.88 19.44ZM18.65 19.44L16.10 19.44L20.23 0L22.85 0L27 19.44L24.43 19.44L23.54 14.54L19.58 14.54L18.65 19.44ZM21.55 3.84L19.94 12.60L23.18 12.60L21.55 3.84Z" transform="translate(51, 4.78)"></path></svg>